<svg width="34" height="34" viewBox="0 0 34 34" fill="none" xmlns="http://www.w3.org/2000/svg">
<g id="fi_2024074" clip-path="url(#clip0_6986_3312)">
<path id="Vector" d="M13.3806 34C13.2484 34 13.1145 33.9736 12.9866 33.9184C12.5389 33.7253 12.2968 33.2367 12.4144 32.7636L15.7827 19.2049H6.70703C6.37852 19.2049 6.07112 19.043 5.88538 18.772C5.69965 18.501 5.65954 18.1559 5.77801 17.8495L12.436 0.636767C12.5844 0.253007 12.9535 0 13.365 0H22.5265C22.8631 0 23.177 0.169999 23.3609 0.451959C23.5447 0.733919 23.5738 1.08966 23.4381 1.39771L19.4956 10.3466H27.293C27.6573 10.3466 27.9925 10.5455 28.1671 10.8651C28.3418 11.1848 28.328 11.5744 28.1311 11.8809L14.2192 33.5421C14.0311 33.835 13.7112 34 13.3806 34Z" fill="white"/>
</g>
<defs>
<clipPath id="clip0_6986_3312">
<rect width="34" height="34" fill="white"/>
</clipPath>
</defs>
</svg>
