<svg width="34" height="34" viewBox="0 0 34 34" fill="none" xmlns="http://www.w3.org/2000/svg">
<g id="fi_6878320">
<g id="Group">
<path id="Vector" d="M1.72858 13.2542V27.9491C1.72858 31.2915 4.43703 34 7.77945 34H26.2201C29.5625 34 32.271 31.2916 32.271 27.9491V13.2542H1.72858ZM24.376 19.7661L16.2506 27.8339C15.9625 28.1221 15.6167 28.2373 15.2134 28.2373C14.8099 28.2373 14.4642 28.0645 14.1761 27.8339L9.56591 23.2814C8.98964 22.7051 8.98964 21.783 9.56591 21.2644C10.1422 20.6881 11.0642 20.6881 11.5829 21.2644L15.1557 24.8373L22.2439 17.7491L22.3015 17.8068C22.8778 17.2881 23.7422 17.2881 24.3185 17.8068C24.8947 18.2678 24.9523 19.1898 24.376 19.7661ZM26.2201 4.03391H25.6438V1.44068C25.6438 0.633914 25.01 0 24.2032 0C23.3964 0 22.7625 0.633914 22.7625 1.44068V4.03391H11.237V1.44068C11.237 0.633914 10.6032 0 9.79634 0C8.98957 0 8.35566 0.633914 8.35566 1.44068V4.03391H7.77939C4.43703 4.03391 1.72852 6.74236 1.72852 10.0848V10.3729H32.2709V10.0848C32.2709 6.74236 29.5625 4.03391 26.2201 4.03391Z" fill="white"/>
</g>
</g>
</svg>
