<svg width="34" height="34" viewBox="0 0 34 34" fill="none" xmlns="http://www.w3.org/2000/svg">
<g id="fi_9131566">
<g id="Layer_2_00000163787779129348387700000017400235220653464224_">
<g id="Social_Icon">
<path id="Heart" d="M30.6266 20.8514C29.1258 22.6709 22.525 28.1162 19.0918 30.9053C17.8699 31.9014 16.1234 31.9014 14.9016 30.9053C11.4684 28.1162 4.87422 22.6709 3.3668 20.8514C1.06914 18.0822 0 15.4459 0 12.5771C0 9.7748 0.95625 7.19824 2.69609 5.3123C4.4625 3.40645 6.87305 2.35059 9.49609 2.35059C11.4617 2.35059 13.2547 2.9748 14.8352 4.19668C15.6586 4.84082 16.3891 5.59785 16.9934 6.45449C17.6043 5.60449 18.3281 4.84082 19.1516 4.19668C20.732 2.96816 22.5316 2.35059 24.4973 2.35059C27.127 2.35059 29.5375 3.40645 31.2973 5.3123C33.0305 7.19824 33.9934 9.76816 33.9934 12.5771C34 15.4459 32.9309 18.0822 30.6266 20.8514Z" fill="white"/>
</g>
</g>
</g>
</svg>
